<?xml version="1.0" encoding="UTF-8"?>
<svg version="1.1" viewBox="0 0 1299 1300" width="1280" height="1280" xmlns="http://www.w3.org/2000/svg">
<path transform="translate(0)" d="m0 0h1299v1300h-1299z" fill="#FDFDFD"/>
<path transform="translate(480,438)" d="m0 0h7l10 3 7 6 10 15 17 25 11 16 17 25 8 12 34 50 4 3h7l4-1 1-4v-8l-10-14-22-33-2-5v-10l3-7 4-6 8-5 4-1h7l8 3 6 4 12 17 10 15 11 16 3 2h8l4-4 1-6-3-6-14-21-2-6v-8l4-9 8-7 5-2h10l8 3 8 8 29 44 3 4v2l9 1 5-3 2-4-1-7-4-6-1-5v-7l4-10 7-6 5-2h12l8 4 5 5 7 10 22 33 8 11 10 15 7 11 11 19 14 27 12 28 10 28 7 24 4 17 5 8v3l-15 10-41 28-22 15-15 10-16 11-44 30h-2l-7-8-9-6-24-7-60-16-12-5-9-5-10-8-8-8-10-13-10-15-8-14-13-21-17-28-11-18-7-11v-3h9l15 3 16 7 11 7 13 13 11 16 13 19 6 8 7 2 6-3 2-7-5-10-8-11-8-12-15-22-10-15-7-10-8-12-15-22-13-19-19-28-11-16-8-12-15-22-19-28-7-10-4-8-1-4v-8l5-10 8-6z" fill="#FDFDFD"/>
<path transform="translate(477,419)" d="m0 0h14l10 3 8 4 12 11 7 11 11 16 16 24 10 14 3 3 2-6 9-10 10-6 8-3h17l13 5 8 6 2 1 7-11 8-7 10-5 10-2 12 1 13 5 8 6 7 8 9 14v2h2l2-5 7-8 7-6 10-4 5-1h12l10 3 11 6 10 11 30 45 7 10 12 18 9 15 10 18 8 15 11 25 11 29 8 25 7 26 3 4 9-5 4-1h10l8 4 6 5 12 18 17 25 10 15 2 7v7l-3 9-6 7-18 12-22 15-16 11-15 10-16 11-22 15-44 30-24 16-10 7-18 12-7 2-11-1-10-6-16-23-24-36-3-9 1-10 4-8 7-6 6-4-1-4-6-4-43-12-41-11-16-7-12-8-12-11-8-8-14-19-13-22-10-16-17-28-10-16-9-15-5-9v-13l5-8 5-4 4-2h19l19 4-6-8-16-24-14-20-16-24-7-10-10-15-30-44-12-18-4-9-1-4v-17l4-10 6-9 7-7 13-6zm3 19-10 5-5 6-3 7v8l3 8 8 13 8 11 8 12 13 19 10 15 15 22 19 28 13 19 15 22 10 15 7 10 8 12 11 16 19 28 5 8 1 5-3 6-7 2-5-2-4-5-15-22-12-17-12-12-11-7-16-7-15-3h-9l1 4 10 17 5 7 6 11 13 21 14 23 11 18 12 17 12 13 11 9 17 8 26 7 32 9 26 7 8 4 10 9 1 2 5-2 16-11 38-26 18-12 19-13 44-30 15-10-1-5-4-6-6-24-7-22-10-28-13-29-14-27-9-15-10-15-13-19-19-28-8-12-5-7-8-5-3-1h-12l-8 4-5 6-3 8v7l2 6 4 8-1 7-3 3-7 1-5-1-2-5-29-43-7-8-6-4-4-1h-10l-8 4-7 8-2 6v8l3 8 13 19 3 6-1 6-4 4h-8l-5-5-16-23-10-15-6-8-9-5-4-1h-7l-8 3-5 5-5 7-1 4v10l5 10 16 23 10 15 3 4v8l-1 4-4 1h-7l-5-4-16-24-17-25-8-12-13-19-30-44-13-19-6-5-10-3z" fill="#485159"/>
<path transform="translate(930,742)" d="m0 0 5 3 7 10 16 24 13 19v5l-12 9-12 8-19 13-28 19-16 11-12 8-13 9-12 8-16 11-28 19-19 13-15 10h-5l-8-11-8-12-14-20-8-12v-5l10-8 24-16 38-26 72-49 8-6 7-4 23-16 15-10z" fill="#FDFDFD"/>
<path transform="translate(463,339)" d="m0 0 7 1 5 5v8l-5 5-18 10-13 9-16 13-13 13-11 14-9 13-9 16-6 13-5 13-6 23-3 20-1 35 24-7 8-2-2 11-16 63-3 10-5-3v-2l-4-2-17-17v-2l-4-2-6-5-3-3v-2h-2v-2l-4-2-17-17v-2l29-8h3l-1-10v-23l3-27 6-25 9-24 8-16 8-14 10-14 9-11 11-12h2l2-4 13-11 14-10 18-11z" fill="#485159"/>
</svg>
