<?xml version="1.0" encoding="UTF-8"?>
<svg version="1.1" viewBox="0 0 833 833" width="1280" height="1280" xmlns="http://www.w3.org/2000/svg">
<path transform="translate(0)" d="m0 0h833v833h-833z" fill="#FEFEFE"/>
<path transform="translate(443,202)" d="m0 0h9l5 3 6 7 3 7 4 29 5 55 5 75 3 57 1 5 9-3h11l10 5 7 7 6 12 2 8 9 1 10 4 10 8 7 11 4 16v20l-4 22-10 36-14 46-7 26-5 26-3 26-2 35h-5l2-38 4-31 6-28 10-34 12-40 8-30 3-20v-13l-3-14-5-10-7-7-10-5-14-3-5-15-6-9-6-5-7-2-10 1-10 5h-2l-1-7-5-91-5-68-5-48-3-16-4-7-5-4-9 1-5 6-3 11-1 133-1 35-2 31-3 19-3 5-6-1-3-10-1-9v-65l2-76v-21l-2-14-4-9-4-3h-7l-6 4-6 8-3 10-9 81-18 151-4 17-8 16-6 5-6-1-3-5-5-34-5-19-6-16-8-14-10-12-8-5-6-2h-12l-3 5 4 10 7 14 5 17 4 24 3 35 2 35 3 15 8 16 13 20 10 18 9 19 6 18 4 20 1 19-2 19-4 14-2 5-4-1 1-5 4-14 2-19-1-17-4-20-6-17-10-22-13-22-12-18-5-12-3-15-3-50-4-33-6-25-6-14-5-8-1-8 3-6 7-3h7l13 4 9 7 10 12 10 19 7 21 4 20 3 23 2 3 5-5 5-10 5-19 19-160 1-80 7 7v-5l-5-8-2-6v-11l4-10 7-8 10-5 11-1 10 3 8 6 4 5 3 4 2-9 5-8 5-4z" fill="#818285"/>
<path transform="translate(398,206)" d="m0 0 11 1 10 5 7 8 3 6v115l-1 51-2 31-3 18-2 2-2-8-1-12v-49l2-72v-41l-3-14-3-6-1-3-5-2-7-1-8 3-7 7-4 8-2 3-4-5-4-10v-11l4-10 7-8 10-5z" fill="#25AAE1"/>
<path transform="translate(372,149)" d="m0 0h58v69l-5-5-7-6-11-4h-12l-11 4-10 9-2 2z" fill="#25AAE1"/>
<path transform="translate(524,95)" d="m0 0h2l11 20 12 21v2h-16v11h-16v-11h-16l2-6 16-28z" fill="#818285"/>
<path transform="translate(517,292)" d="m0 0h16v10h17l-6 11-14 25-4 7h-2l-14-25-10-17v-1h17z" fill="#818285"/>
<path transform="translate(425,332)" d="m0 0h3v60l-2 31-3 18-2 2-2-8-1-12v-49l1-19 3-13 2-9z" fill="#FEFEFE"/>
<path transform="translate(428,254)" d="m0 0h1v87h-1v-9l-3 1-4 20-2 2 2-93z" fill="#25AAE1"/>
<path transform="translate(372,253)" d="m0 0 7 7v9l-6 53h-1z" fill="#25AAE1"/>
<path transform="translate(428,245)" d="m0 0h1v9l-7 8-2-1 1-5 6-8z" fill="#FEFEFE"/>
</svg>
